<?xml version="1.0" standalone="no"?>
<!DOCTYPE svg PUBLIC "-//W3C//DTD SVG 20010904//EN"
 "http://www.w3.org/TR/2001/REC-SVG-20010904/DTD/svg10.dtd">
<svg version="1.0" xmlns="http://www.w3.org/2000/svg"
 width="4167.000000pt" height="4168.000000pt" viewBox="0 0 4167.000000 4168.000000"
 preserveAspectRatio="xMidYMid meet">
<metadata>
Created by potrace 1.16, written by Peter Selinger 2001-2019
</metadata>
<g transform="translate(0.000000,4168.000000) scale(0.100000,-0.100000)"
fill="#000000" stroke="none">
<path d="M20605 36624 c-507 -25 -836 -49 -1190 -89 -3899 -441 -7467 -2361
-10002 -5382 -2025 -2413 -3262 -5411 -3518 -8523 -8 -102 -18 -215 -21 -252
l-6 -68 381 0 c297 0 382 3 385 13 2 6 11 109 20 227 61 792 217 1696 432
2505 797 2998 2537 5666 4969 7618 2198 1765 4860 2852 7655 3127 563 55 1030
74 1625 67 556 -7 958 -31 1460 -88 4092 -459 7798 -2642 10208 -6010 1169
-1634 1986 -3495 2398 -5462 122 -582 219 -1259 262 -1827 l12 -165 383 -3
383 -2 -6 67 c-3 38 -12 151 -20 253 -36 436 -111 1000 -191 1439 -342 1873
-1017 3637 -2012 5259 -1703 2778 -4286 4966 -7302 6187 -1544 626 -3089 975
-4830 1091 -218 14 -1280 27 -1475 18z"/>
<path d="M21790 34622 c-342 -202 -614 -414 -900 -701 -97 -97 -215 -225 -263
-286 -287 -359 -478 -729 -577 -1120 -67 -264 -75 -333 -75 -665 0 -316 10
-405 70 -676 27 -118 115 -404 124 -404 4 0 15 39 24 88 133 644 552 1607
1099 2519 60 101 114 185 119 189 25 15 20 -13 -15 -83 -21 -42 -247 -662
-502 -1377 l-465 -1299 -14 -126 c-21 -173 -20 -291 1 -291 30 0 302 113 479
200 211 103 467 249 579 328 260 186 436 469 526 845 58 245 65 319 65 702 0
401 -5 449 -90 975 -77 473 -88 585 -89 850 0 174 4 243 17 305 19 91 20 95
10 95 -5 0 -60 -31 -123 -68z"/>
<path d="M16576 32508 c72 -422 182 -757 365 -1119 139 -274 302 -501 504
-704 382 -383 839 -601 1400 -669 136 -17 375 -31 375 -22 0 3 -61 46 -137 96
-435 290 -906 724 -1400 1289 -164 187 -353 418 -353 432 0 19 20 7 52 -31 18
-22 449 -383 956 -803 790 -652 936 -768 1010 -806 93 -47 223 -101 243 -101
27 0 -7 443 -57 739 -66 395 -135 545 -348 756 -126 125 -262 221 -444 314
-299 151 -608 244 -1132 341 -475 88 -721 157 -918 261 -63 32 -115 59 -118
59 -2 0 -1 -15 2 -32z"/>
<path d="M23184 31906 c-17 -8 -47 -28 -67 -46 -21 -18 -260 -367 -550 -803
-849 -1276 -946 -1408 -1317 -1817 -373 -410 -731 -771 -1045 -1055 -60 -55
-112 -103 -114 -108 -2 -5 28 -6 65 -3 38 3 141 8 229 11 640 22 1421 109
1871 208 l100 22 88 100 c48 55 201 239 339 409 499 614 585 710 902 1009 293
277 717 649 857 750 32 23 64 56 73 74 60 125 -58 394 -275 627 -74 79 -200
182 -285 234 -33 20 -148 92 -255 161 -222 142 -331 202 -409 225 -66 19 -165
20 -207 2z"/>
<path d="M20660 29884 c-1822 -50 -3153 -319 -3934 -798 -155 -94 -259 -177
-386 -305 -306 -309 -402 -598 -387 -1164 9 -332 62 -570 182 -812 194 -391
519 -635 986 -739 167 -37 311 -50 479 -42 180 7 297 25 471 70 226 58 336 68
776 73 l393 5 44 30 c110 72 227 232 274 375 50 153 28 405 -37 419 -115 25
-238 83 -379 177 -81 54 -157 121 -317 277 -292 284 -416 381 -610 476 -240
116 -399 143 -1090 184 -440 26 -554 42 -638 88 l-32 17 110 2 c183 4 483 23
594 39 58 7 106 14 108 14 1 0 31 24 65 53 165 139 309 233 533 344 728 364
1756 564 2941 575 l241 2 135 150 c270 301 390 452 369 465 -20 13 -671 31
-891 25z m-2525 -2214 c238 -27 393 -107 464 -239 l32 -60 -23 -14 c-55 -35
-148 -50 -218 -37 -142 27 -270 134 -374 313 l-28 47 29 0 c15 0 69 -5 118
-10z"/>
<path d="M23539 29473 c-142 -145 -357 -390 -348 -397 2 -1 58 -10 124 -20
407 -58 496 -76 594 -122 429 -202 374 -406 -159 -589 -580 -198 -1738 -361
-3420 -480 -433 -30 -1010 -65 -1085 -65 -105 0 -54 -16 88 -28 1797 -152
3413 -56 4387 260 437 141 825 362 1071 607 140 140 174 205 174 331 0 74 -3
91 -27 131 -90 153 -333 288 -728 403 -162 47 -474 126 -501 126 -9 0 -85 -71
-170 -157z"/>
<path d="M25365 28811 c-95 -24 -183 -106 -261 -241 -108 -189 -358 -376 -699
-523 -584 -252 -927 -356 -1485 -446 -342 -56 -557 -79 -1065 -116 -904 -64
-1712 -58 -2600 19 -82 7 -152 11 -154 10 -6 -6 85 -84 153 -132 93 -66 227
-130 316 -151 95 -22 139 -52 180 -123 51 -90 74 -196 75 -340 l0 -128 30 -6
c62 -15 556 -7 700 10 274 33 564 105 700 173 102 52 222 138 295 212 72 73
139 177 141 217 0 18 1 17 9 -1 12 -29 12 -145 -1 -205 -6 -28 -26 -73 -44
-100 l-34 -50 42 0 c114 0 236 -38 312 -95 34 -27 82 -92 73 -100 -3 -3 -31 0
-64 7 -32 6 -120 11 -194 11 -161 1 -217 -12 -375 -85 -236 -108 -537 -188
-845 -224 -158 -18 -515 -24 -710 -12 l-115 8 -42 -74 c-90 -159 -229 -298
-361 -363 l-57 -28 -415 -7 c-459 -7 -544 -15 -768 -72 -219 -56 -338 -70
-577 -70 -223 0 -314 11 -506 59 -149 38 -262 81 -396 150 -68 34 -123 58
-123 51 0 -6 6 -31 14 -56 8 -25 24 -88 36 -140 62 -273 239 -609 458 -870
105 -126 322 -335 453 -436 570 -444 1306 -744 2285 -929 1365 -259 2466 -350
3106 -256 68 10 125 17 126 15 2 -1 -73 -27 -166 -58 -1450 -471 -3052 -345
-4584 363 -49 22 -88 36 -88 31 0 -17 135 -164 232 -254 266 -245 600 -467
973 -647 625 -301 1407 -497 2340 -584 230 -22 757 -31 960 -16 735 52 1239
228 1578 550 106 102 210 236 237 309 11 29 27 95 36 145 50 285 -66 571 -319
785 l-37 32 34 32 c62 60 237 251 341 373 266 313 482 631 636 934 87 171 210
483 196 497 -2 3 -65 -27 -138 -65 -249 -130 -571 -264 -911 -380 -669 -227
-1334 -361 -2103 -423 -246 -20 -987 -17 -1245 5 -615 53 -1174 155 -1735 317
-236 69 -332 101 -280 95 22 -2 139 -13 260 -24 1569 -144 3126 -52 4250 250
626 169 1108 376 1545 664 542 356 852 754 952 1218 29 136 31 386 4 527 -49
256 -197 579 -309 675 -81 70 -195 106 -272 86z"/>
<path d="M29040 24064 c-205 -44 -385 -214 -429 -404 -16 -67 -13 -237 4 -303
40 -156 138 -263 290 -318 51 -19 81 -23 205 -23 140 -1 148 0 222 30 42 17
106 52 142 78 75 53 73 55 52 -64 -67 -367 -332 -522 -629 -368 -34 18 -65 34
-68 36 -4 2 -37 -43 -73 -98 -77 -118 -78 -114 26 -166 94 -48 211 -74 329
-74 349 0 605 229 684 615 36 174 30 415 -15 590 -63 249 -229 424 -447 470
-85 18 -208 18 -293 -1z m248 -249 c129 -39 209 -154 242 -351 l10 -59 -37
-33 c-47 -42 -130 -85 -207 -107 -82 -24 -235 -17 -291 12 -47 25 -85 64 -111
113 -15 28 -19 57 -19 140 0 98 2 109 30 159 34 61 73 94 142 121 60 24 170
26 241 5z"/>
<path d="M12152 24050 c-152 -40 -264 -126 -324 -247 -32 -66 -33 -71 -33
-193 0 -116 2 -129 28 -181 36 -75 116 -148 213 -197 44 -22 167 -68 274 -102
215 -69 298 -105 349 -153 79 -76 83 -187 8 -265 -87 -90 -322 -108 -484 -37
-65 29 -157 115 -198 184 -16 28 -34 51 -38 51 -5 0 -58 -25 -117 -56 -125
-63 -122 -53 -50 -168 90 -142 234 -243 409 -287 115 -29 339 -23 446 11 134
43 217 98 288 192 86 115 103 310 39 441 -67 136 -184 209 -496 308 -227 73
-280 95 -330 139 -49 43 -66 79 -66 137 0 71 26 112 95 148 48 25 71 30 152
33 119 6 201 -15 283 -70 54 -35 140 -128 140 -149 0 -20 31 -6 119 55 51 36
95 67 98 69 8 8 -34 80 -76 130 -89 106 -194 171 -335 207 -107 27 -290 27
-394 0z"/>
<path d="M27471 24020 c-48 -33 -156 -70 -201 -70 -59 0 -60 -1 -60 -138 l0
-125 68 6 c37 3 101 17 142 31 41 14 76 26 78 26 1 0 2 -243 2 -540 l0 -540
-150 0 -150 0 0 -125 0 -125 420 0 420 0 0 125 0 125 -130 0 -130 0 0 690 0
690 -132 0 c-131 0 -134 -1 -177 -30z"/>
<path d="M30550 24038 c0 -7 -13 -193 -30 -413 -16 -220 -30 -411 -30 -425 0
-23 8 -28 83 -53 46 -15 88 -27 93 -27 6 0 32 21 59 46 26 26 73 58 104 73 50
23 68 26 166 26 94 0 117 -3 163 -24 117 -53 176 -187 151 -343 -25 -155 -132
-245 -303 -255 -135 -9 -245 29 -366 127 -35 27 -67 50 -71 50 -16 0 -169
-179 -164 -192 3 -8 25 -31 49 -50 81 -68 164 -115 263 -148 86 -29 115 -33
228 -37 222 -8 370 41 491 162 112 111 158 235 158 420 -1 104 -4 131 -28 199
-47 137 -117 221 -233 280 -174 87 -454 69 -572 -38 l-23 -21 5 30 c3 17 11
108 18 203 l12 172 352 0 352 0 7 92 c3 50 6 106 6 125 l0 33 -470 0 c-369 0
-470 -3 -470 -12z"/>
<path d="M32456 24019 c-41 -30 -149 -69 -195 -69 -71 -1 -71 0 -71 -136 l0
-124 49 0 c40 0 121 19 234 57 16 5 17 -25 17 -536 l0 -541 -150 0 -150 0 0
-125 0 -125 420 0 420 0 0 125 0 125 -135 0 -135 0 0 690 0 690 -132 -1 c-131
0 -134 -1 -172 -30z"/>
<path d="M10040 23225 l0 -815 550 0 550 0 0 130 0 130 -410 0 -410 0 0 230 0
230 285 0 285 0 0 125 0 125 -285 0 -285 0 0 200 0 200 390 0 390 0 0 130 0
130 -530 0 -530 0 0 -815z"/>
<path d="M13530 23910 l0 -130 250 0 250 0 0 -685 0 -685 140 0 140 0 0 685 0
685 255 0 255 0 0 130 0 130 -645 0 -645 0 0 -130z"/>
<path d="M17627 23871 c-279 -297 -338 -646 -163 -978 87 -165 260 -352 429
-463 513 -338 1474 -597 2592 -697 272 -24 920 -24 1133 0 300 34 578 101 712
171 l45 24 -90 6 c-490 36 -834 78 -1225 152 -1129 213 -2045 586 -2675 1090
-133 106 -376 347 -469 464 -37 47 -99 132 -138 190 -39 58 -74 106 -78 108
-4 1 -37 -29 -73 -67z"/>
<path d="M11050 20066 l0 -507 81 3 82 3 12 40 c65 219 316 383 680 445 125
21 428 43 523 38 l62 -3 -142 -100 c-325 -227 -503 -464 -555 -740 -22 -115
-13 -353 16 -454 55 -189 200 -397 374 -540 158 -128 329 -226 585 -331 l114
-47 -114 -28 c-431 -106 -864 -320 -1213 -600 -123 -99 -318 -292 -409 -405
-217 -270 -381 -591 -460 -900 -49 -192 -66 -318 -73 -535 -19 -608 137 -1158
468 -1649 258 -384 607 -686 1034 -896 426 -210 808 -290 1320 -277 449 11
777 88 1150 271 268 131 482 283 680 481 443 443 715 1069 776 1782 15 185 7
561 -16 708 -65 420 -237 796 -510 1113 -308 358 -727 618 -1485 920 -542 216
-677 281 -885 423 -300 204 -473 435 -530 704 -23 111 -24 300 -1 385 37 137
121 285 237 421 56 64 239 222 319 275 l35 23 1030 6 c567 3 1099 8 1183 11
l152 6 0 220 0 221 -67 -7 c-339 -32 -1197 -49 -2678 -50 -930 -1 -1239 2
-1335 12 -119 12 -337 43 -407 58 l-33 7 0 -507z m2322 -2597 c319 -64 655
-269 993 -604 382 -379 679 -856 834 -1339 81 -255 107 -459 91 -714 -37 -576
-220 -1035 -539 -1352 -300 -298 -660 -440 -1116 -440 -386 0 -699 135 -1090
470 -656 562 -1127 1526 -1091 2230 38 734 389 1323 961 1610 304 152 648 202
957 139z"/>
<path d="M24570 20459 c-646 -44 -1271 -252 -1760 -587 -223 -152 -476 -386
-634 -583 -236 -297 -432 -675 -530 -1019 -76 -268 -105 -474 -113 -792 -13
-531 67 -952 266 -1402 299 -675 808 -1207 1466 -1531 454 -224 854 -315 1386
-315 519 0 923 92 1374 315 503 248 917 611 1231 1080 372 556 563 1185 564
1851 0 340 -54 626 -177 939 -164 415 -407 781 -742 1115 -281 280 -568 486
-924 661 -464 228 -868 305 -1407 268z m234 -509 c347 -59 623 -211 935 -515
260 -253 456 -532 631 -900 191 -399 312 -823 382 -1335 20 -151 17 -599 -5
-735 -113 -683 -425 -1208 -907 -1524 -354 -233 -782 -304 -1253 -210 -930
186 -1784 1202 -2031 2416 -49 240 -60 351 -60 628 0 344 26 572 99 850 147
564 467 953 968 1177 341 153 855 214 1241 148z"/>
<path d="M35900 20460 c-1152 -88 -2089 -622 -2615 -1490 -214 -352 -343 -727
-402 -1160 -23 -169 -25 -645 -5 -815 49 -395 148 -722 328 -1075 310 -610
779 -1074 1389 -1375 480 -237 892 -324 1469 -312 502 10 879 103 1318 323
669 335 1188 893 1501 1614 189 435 278 900 264 1388 -11 399 -92 718 -278
1091 -321 647 -853 1182 -1504 1513 -323 164 -571 244 -890 288 -109 15 -434
21 -575 10z m85 -490 c436 -40 762 -207 1127 -576 134 -135 228 -250 327 -397
329 -491 547 -1090 637 -1747 21 -161 30 -517 15 -666 -56 -560 -294 -1082
-647 -1425 -311 -300 -641 -446 -1059 -465 -374 -18 -760 84 -1085 285 -233
145 -553 434 -720 651 -501 650 -784 1492 -756 2250 34 941 339 1536 958 1870
313 168 799 257 1203 220z"/>
<path d="M2510 20300 l0 -130 48 0 c221 -2 476 -21 572 -44 224 -51 360 -147
442 -311 18 -34 1526 -5084 1615 -5407 5 -17 36 -18 478 -18 l473 0 11 33 c44
139 1781 5986 1781 5995 0 9 -55 12 -204 12 l-204 0 -11 -32 c-6 -18 -359
-1212 -786 -2653 -427 -1441 -777 -2623 -778 -2627 -1 -4 -348 1161 -771 2590
-424 1428 -778 2625 -788 2660 l-19 62 -929 0 -930 0 0 -130z"/>
<path d="M8180 20281 l0 -129 273 -5 c244 -3 280 -6 347 -26 144 -43 272 -129
315 -211 46 -89 45 2 45 -2842 l0 -2678 440 0 440 0 0 3010 0 3010 -930 0
-930 0 0 -129z"/>
<path d="M15760 20280 l0 -130 238 0 c282 0 378 -15 507 -79 136 -67 200 -147
224 -276 8 -41 11 -850 11 -2732 l0 -2673 245 0 245 0 2 2242 3 2241 1618
-2241 1618 -2242 245 0 244 0 0 3010 0 3010 -245 0 -245 0 -2 -2247 -3 -2247
-1619 2247 -1619 2247 -733 0 -734 0 0 -130z"/>
<path d="M27590 20280 l0 -130 238 0 c195 0 254 -4 331 -20 120 -24 226 -75
295 -140 61 -58 90 -116 105 -211 7 -43 11 -925 11 -2726 l0 -2663 1988 0
1989 0 6 503 c4 276 7 584 7 685 l0 182 -94 0 -94 0 -11 -67 c-41 -239 -126
-410 -280 -563 -153 -152 -380 -274 -621 -336 -225 -56 -236 -57 -1157 -61
l-853 -4 0 2840 0 2841 -930 0 -930 0 0 -130z"/>
<path d="M7886 12703 c69 -124 265 -445 390 -639 458 -709 969 -1374 1550
-2015 195 -216 794 -815 1009 -1011 1463 -1328 3125 -2345 4948 -3027 2311
-865 4809 -1157 7282 -850 3045 377 5898 1664 8215 3703 336 297 866 815 1150
1126 616 675 1156 1374 1630 2115 104 162 353 573 384 633 l17 32 -443 0 -443
0 -50 -82 c-80 -132 -371 -569 -495 -743 -789 -1110 -1733 -2110 -2794 -2958
-1801 -1440 -3904 -2427 -6151 -2886 -989 -203 -1904 -294 -2930 -294 -451 0
-710 9 -1110 39 -2051 154 -4057 748 -5860 1734 -1847 1011 -3458 2413 -4714
4103 -231 312 -533 754 -692 1014 l-44 73 -443 0 -444 0 38 -67z"/>
<path d="M24390 10705 c-142 -31 -273 -105 -360 -203 -67 -76 -136 -211 -167
-330 -24 -89 -27 -114 -27 -297 -1 -217 12 -297 69 -436 81 -200 247 -345 450
-396 95 -23 296 -23 385 1 225 59 366 200 445 442 14 43 22 81 18 84 -8 7
-239 60 -259 60 -7 0 -15 -15 -18 -33 -11 -61 -74 -176 -121 -221 -101 -98
-288 -122 -432 -54 -116 55 -206 189 -239 357 -24 121 -15 358 16 456 43 137
115 228 220 281 71 36 215 46 302 20 99 -28 179 -120 223 -253 9 -29 19 -53
23 -53 4 0 64 16 134 36 144 41 140 37 109 127 -72 208 -198 338 -386 397 -92
28 -290 36 -385 15z"/>
<path d="M16135 10683 c-3 -10 -132 -373 -285 -808 -153 -434 -282 -798 -285
-807 -7 -17 3 -18 128 -18 l136 0 19 53 c10 28 41 116 68 195 l49 142 304 -2
304 -3 66 -192 66 -193 147 0 147 0 -58 168 c-33 92 -157 444 -276 782 -119
338 -224 634 -232 658 l-15 42 -138 0 c-122 0 -139 -2 -145 -17z m249 -680
l105 -313 -219 0 -219 0 34 98 c18 53 62 183 98 287 76 221 86 249 91 244 2
-2 51 -145 110 -316z"/>
<path d="M22452 10643 c-25 -70 -420 -1189 -503 -1426 l-59 -168 137 3 136 3
66 193 66 192 305 -2 305 -3 65 -192 65 -193 149 0 c137 0 148 1 141 18 -3 9
-132 373 -285 807 -153 435 -282 798 -285 808 -6 15 -23 17 -145 17 l-137 0
-21 -57z m264 -645 l102 -308 -218 0 -219 0 48 138 c26 75 77 220 111 321 35
102 66 178 69 170 2 -8 50 -152 107 -321z"/>
<path d="M27482 10673 c-5 -16 -134 -379 -285 -808 -152 -429 -279 -788 -282
-798 -7 -16 2 -17 130 -15 l137 3 67 193 66 192 304 -2 305 -3 65 -192 66
-193 147 0 147 0 -28 83 c-21 60 -431 1222 -543 1540 l-10 27 -138 0 -138 0
-10 -27z m252 -670 l105 -313 -219 0 -219 0 34 98 c171 500 184 537 189 531 2
-2 51 -145 110 -316z"/>
<path d="M14160 9870 l0 -820 140 0 140 0 0 350 0 350 275 0 275 0 0 125 0
125 -275 0 -275 0 0 210 0 210 375 0 375 0 0 135 0 135 -515 0 -515 0 0 -820z"/>
<path d="M17660 9871 l0 -821 140 0 140 0 0 320 0 320 143 0 142 0 180 -320
180 -320 153 0 c83 0 152 3 152 6 0 4 -84 154 -186 335 -102 181 -182 333
-179 339 3 5 12 10 18 10 33 0 157 72 201 116 98 97 142 256 118 425 -29 204
-140 320 -361 381 -70 20 -108 22 -458 26 l-383 4 0 -821z m710 548 c166 -27
243 -134 210 -294 -10 -46 -20 -66 -54 -99 -64 -64 -118 -76 -373 -83 l-213
-6 0 247 0 246 183 0 c100 0 211 -5 247 -11z"/>
<path d="M19620 9870 l0 -820 130 0 130 0 0 593 1 592 34 -115 c18 -63 110
-329 203 -590 l170 -475 127 0 128 0 159 440 c87 242 178 505 203 585 l44 145
0 -587 1 -588 140 0 140 0 0 820 0 820 -192 -2 -193 -3 -207 -634 c-114 -348
-209 -635 -210 -636 -2 -2 -100 284 -218 636 l-215 639 -187 0 -188 0 0 -820z"/>
<path d="M25940 9870 l0 -820 145 0 145 0 0 820 0 820 -145 0 -145 0 0 -820z"/>
</g>
</svg>
